# Blender v2.79 (sub 0) OBJ File: 'book.blend'
# www.blender.org
mtllib oldbook.mtl
o Cube_Cube.001
v -0.785521 -0.140000 0.960000
v -0.785521 0.140000 0.960000
v -0.785521 -0.140000 -0.960000
v -0.785521 0.140000 -0.960000
v 0.770000 -0.140000 0.960000
v 0.770000 0.140000 0.960000
v 0.770000 -0.140000 -0.960000
v 0.770000 0.140000 -0.960000
v -0.770000 0.163616 0.960000
v -0.770000 0.163616 -0.960000
v 0.770000 0.163616 -0.960000
v 0.770000 0.163616 0.960000
v -0.770000 0.140000 -0.986289
v 0.797036 0.140000 -0.986289
v 0.797036 0.140000 0.981185
v -0.770000 0.140000 0.981185
v -0.770000 0.163616 -0.986289
v 0.797036 0.163616 -0.986289
v 0.797036 0.163616 0.981185
v -0.770000 0.163616 0.981185
v -0.770000 -0.167574 -0.960000
v -0.770000 -0.167574 0.960000
v 0.770000 -0.167574 -0.960000
v 0.770000 -0.167574 0.960000
v -0.770000 -0.140000 0.980430
v 0.770000 -0.140000 0.980430
v -0.770000 -0.167574 0.980430
v 0.770000 -0.167574 0.980430
v 0.806239 -0.140000 0.960000
v 0.806239 -0.140000 -0.960000
v 0.806239 -0.167574 0.960000
v 0.806239 -0.167574 -0.960000
v 0.806239 -0.140000 0.960000
v 0.806239 -0.167574 0.960000
v 0.806239 -0.140000 0.980430
v 0.806239 -0.167574 0.980430
v 0.770000 -0.140000 -0.986241
v -0.770000 -0.140000 -0.986241
v 0.770000 -0.167574 -0.986241
v -0.770000 -0.167574 -0.986241
v 0.770000 -0.140000 -0.986247
v 0.770000 -0.167574 -0.986247
v 0.806239 -0.140000 -0.986247
v 0.806239 -0.167574 -0.986247
v -0.748937 -0.140000 -0.960000
v -0.748937 0.140000 -0.960000
v -0.748937 -0.140000 0.960000
v -0.748937 0.140000 0.960000
v -0.748567 0.140000 -0.986289
v -0.748567 0.140000 0.981185
v -0.748937 -0.140000 0.980430
v -0.748937 -0.140000 -0.986241
v -0.770000 0.140000 -0.986265
v -0.770000 -0.140000 -0.986265
v -0.748937 -0.140000 -0.986265
v -0.748937 0.140000 -0.986265
v -0.770000 -0.140000 0.979841
v -0.770000 0.140000 0.979841
v -0.748937 0.140000 0.979841
v -0.748937 -0.140000 0.979841
v -0.747698 0.158109 -0.986289
v -0.747698 0.158109 0.981185
v -0.745064 0.158369 -0.986289
v -0.745064 0.158369 0.981185
v -0.742532 0.159137 -0.986289
v -0.742532 0.159137 0.981185
v -0.755199 0.160385 -0.986289
v -0.755199 0.160385 0.981185
v -0.738152 0.162064 -0.986289
v -0.738152 0.162063 0.981185
v -0.740198 0.160385 -0.986289
v -0.740198 0.160384 0.981185
v -0.736878 0.163616 -0.986289
v -0.736878 0.163616 -0.960000
v -0.748567 0.158195 0.981185
v -0.736877 0.163616 0.960000
v -0.736877 0.163616 0.981185
v -0.757244 0.162064 -0.986289
v -0.758519 0.163616 0.960000
v -0.758519 0.163616 0.981185
v -0.757244 0.162063 0.981185
v -0.758519 0.163616 -0.986289
v -0.758519 0.163616 -0.960000
v -0.752864 0.159137 -0.986289
v -0.752864 0.159137 0.981185
v -0.750332 0.158369 -0.986289
v -0.750332 0.158369 0.981185
v -0.748567 0.158195 -0.986289
v -0.758923 -0.166032 -0.986241
v -0.759747 -0.167574 -0.986241
v -0.759747 -0.167574 -0.960000
v -0.758923 -0.166032 0.980430
v -0.735649 -0.167574 -0.986241
v -0.735649 -0.167574 -0.960000
v -0.736473 -0.166032 -0.986241
v -0.735649 -0.167574 0.960000
v -0.735649 -0.167574 0.980430
v -0.736473 -0.166032 0.980430
v -0.738152 -0.163987 -0.986241
v -0.738152 -0.163987 0.980430
v -0.745064 -0.160292 -0.986241
v -0.745064 -0.160292 0.980430
v -0.747698 -0.160032 -0.986241
v -0.747698 -0.160032 0.980430
v -0.742532 -0.161060 -0.986241
v -0.742532 -0.161060 0.980430
v -0.750332 -0.160292 -0.986241
v -0.750332 -0.160292 0.980430
v -0.748937 -0.160154 0.980430
v -0.748937 -0.160154 -0.986241
v -0.755199 -0.162308 -0.986241
v -0.755199 -0.162308 0.980430
v -0.757244 -0.163987 -0.986241
v -0.757244 -0.163987 0.980430
v -0.759747 -0.167574 0.960000
v -0.759747 -0.167574 0.980430
v -0.740198 -0.162308 -0.986241
v -0.740198 -0.162308 0.980430
v -0.752864 -0.161060 -0.986241
v -0.752864 -0.161060 0.980430
vt 0.429086 0.856317
vt 0.572039 0.856411
vt 0.570886 -0.005674
vt 0.427962 -0.005769
vt 0.002388 0.866485
vt 0.002388 0.994793
vt 0.520403 0.992381
vt 0.520403 0.866485
vt 0.526616 0.871225
vt 0.518803 0.994878
vt -0.001225 0.997291
vt 0.000728 0.871225
vt 0.095215 0.000000
vt 0.095215 1.000000
vt 0.086849 1.000000
vt 0.086849 0.000000
vt 0.114901 0.658352
vt 0.114901 0.756831
vt 0.125965 0.756831
vt 0.125965 0.658352
vt 0.060883 0.577989
vt 0.061613 0.859343
vt 0.080825 0.859267
vt 0.080095 0.577913
vt 0.126870 0.084340
vt 0.126870 0.752489
vt 0.136366 0.761638
vt 0.136366 0.076968
vt 0.080085 0.574060
vt 0.060873 0.574136
vt 0.595637 0.270526
vt 0.994588 0.252288
vt 0.994588 0.336632
vt 0.583333 0.336632
vt 0.106482 0.000000
vt 0.918998 0.000000
vt 0.918998 0.084344
vt 0.112627 0.084344
vt 0.111957 0.078798
vt 0.110882 0.072802
vt 0.109655 0.068346
vt 0.108323 0.065603
vt 0.106939 0.064676
vt 0.106482 0.064982
vt 0.060873 0.574073
vt 0.060883 0.577989
vt 0.080095 0.577913
vt 0.080089 0.575815
vt 0.078826 0.575587
vt 0.077459 0.575219
vt 0.076443 0.574796
vt 0.075817 0.574336
vt 0.075674 0.574014
vt 0.599551 0.063683
vt 0.936501 0.063683
vt 0.942499 0.059027
vt 0.599633 0.059027
vt 0.080095 0.577913
vt 0.060883 0.577989
vt 0.060891 0.581093
vt 0.080103 0.581017
vt 0.106288 0.000000
vt 0.087056 0.000000
vt 0.095215 0.013692
vt 0.106482 0.013692
vt 0.972374 0.851359
vt 0.975475 0.000716
vt 0.998988 0.001171
vt 0.995888 0.849732
vt 0.610449 0.291976
vt 0.610800 0.545946
vt 0.631048 0.545904
vt 0.630697 0.291933
vt 0.204605 0.729508
vt 0.204605 0.147034
vt 0.215702 0.147034
vt 0.215702 0.729508
vt 0.112488 0.390627
vt 0.101416 0.390627
vt 0.101416 0.292149
vt 0.106805 0.292149
vt 0.107239 0.297654
vt 0.108121 0.304960
vt 0.109197 0.310957
vt 0.110424 0.315412
vt 0.111755 0.318156
vt 0.112488 0.318647
vt 0.185126 0.356160
vt 0.185126 0.257682
vt 0.176512 0.257682
vt 0.176512 0.356160
vt 0.106288 0.000000
vt 0.087056 0.000000
vt 0.095215 -0.010641
vt 0.106288 -0.010641
vt 0.135520 0.640859
vt 0.135520 0.651499
vt 0.154570 0.651499
vt 0.154570 0.640859
vt 0.156521 0.801414
vt 0.149801 0.043026
vt 0.210264 0.042208
vt 0.216983 0.800596
vt 0.095215 0.000000
vt 0.114265 0.000000
vt 0.114265 0.013670
vt 0.095215 0.013670
vt 0.055454 0.091731
vt 0.055454 0.709126
vt 0.067215 0.709126
vt 0.067215 0.091731
vt 0.095215 0.000000
vt 0.095215 -0.098478
vt 0.114265 -0.098478
vt 0.114265 0.000000
vt 0.154122 0.499406
vt 0.154122 0.597884
vt 0.145508 0.597884
vt 0.145508 0.499406
vt 0.272391 0.142862
vt 0.272391 0.132221
vt 0.291442 0.132221
vt 0.291442 0.142862
vt 0.166524 0.352330
vt 0.166524 0.253852
vt 0.185574 0.253852
vt 0.185574 0.352330
vt 0.095215 0.901522
vt 0.095215 1.000000
vt 0.114265 1.000000
vt 0.114265 0.901522
vt 0.720802 0.035794
vt 0.717080 0.783233
vt 0.777495 0.783692
vt 0.781185 0.042792
vt 0.777810 0.042361
vt 0.773331 0.041501
vt 0.769658 0.040466
vt 0.766930 0.039297
vt 0.765253 0.038038
vt 0.764691 0.036737
vt 0.764961 0.036130
vt 0.106288 0.000000
vt 0.904785 0.000000
vt 0.904785 0.013667
vt 0.106288 0.013667
vt 0.095215 -0.098478
vt 0.106279 -0.098478
vt 0.106279 0.000000
vt 0.104516 0.614296
vt 0.104516 0.712774
vt 0.123567 0.712774
vt 0.123567 0.614296
vt 0.095215 0.901522
vt 0.095215 1.000000
vt 0.106282 1.000000
vt 0.106282 0.901522
vt 0.114265 0.000000
vt 0.095215 0.000000
vt 0.095215 0.013670
vt 0.114265 0.013670
vt 0.138620 0.348501
vt 0.138620 0.250022
vt 0.149687 0.250022
vt 0.149687 0.348501
vt -0.696297 0.000000
vt -0.696297 0.013667
vt 0.095215 0.013667
vt 0.896626 0.000000
vt 0.915858 0.000000
vt 0.915858 0.013667
vt 0.904785 0.013667
vt 0.198568 0.395150
vt 0.209640 0.395150
vt 0.209640 0.323170
vt 0.208907 0.322680
vt 0.207576 0.319936
vt 0.206349 0.315480
vt 0.205273 0.309484
vt 0.204391 0.302177
vt 0.203958 0.296672
vt 0.198568 0.296672
vt 0.970364 0.067145
vt 0.587057 0.067145
vt 0.587057 0.062037
vt 0.970364 0.062037
vt 0.193175 0.773576
vt 0.196588 0.077285
vt 0.237726 0.077592
vt 0.237474 0.078159
vt 0.237997 0.079370
vt 0.239560 0.080543
vt 0.242101 0.081632
vt 0.245523 0.082595
vt 0.249695 0.083396
vt 0.252840 0.083797
vt 0.249457 0.773997
vt 0.213030 0.474880
vt 0.218420 0.474880
vt 0.218420 0.464239
vt 0.213030 0.464239
vt 0.610449 0.291976
vt 0.610451 0.293667
vt 0.816059 0.293233
vt 0.816056 0.291542
vt 0.095215 0.000000
vt -0.703283 0.000000
vt -0.703088 0.013692
vt 0.109427 0.013692
vt 0.896626 0.000000
vt 0.915858 0.000000
vt 0.916052 -0.011034
vt 0.904785 -0.011034
vt 0.060883 0.577989
vt 0.060878 0.575891
vt 0.063996 0.575879
vt 0.064002 0.577976
vt 0.109427 0.000000
vt -0.703088 0.000000
vt -0.703088 0.064982
vt -0.702631 0.064676
vt -0.701247 0.065603
vt -0.699916 0.068347
vt -0.698689 0.072802
vt -0.697613 0.078798
vt -0.696943 0.084344
vt 0.109427 0.084344
vt 0.095215 0.000000
vt 0.105554 0.065603
vt 0.104223 0.068346
vt 0.102996 0.072802
vt 0.101920 0.078798
vt 0.101250 0.084344
vt 0.095215 0.084344
vt 0.974046 0.848446
vt 0.582099 0.848446
vt 0.582099 0.016607
vt 0.974046 0.016607
vt 0.977276 0.013404
vt 0.569000 0.013404
vt 0.564079 -0.000669
vt 0.991489 0.002370
vt 0.002534 0.999788
vt 0.002706 0.857040
vt 0.522940 0.864487
vt 0.520814 0.997585
vt 0.896626 0.000000
vt 0.915858 0.000000
vt 0.915858 0.013680
vt 0.904785 0.013680
vt 0.133602 0.042084
vt 0.133602 0.775539
vt 0.141724 0.775539
vt 0.141724 0.042084
vt 0.087056 0.000000
vt 0.095215 0.013680
vt 0.106288 0.013680
vt 0.095215 0.000000
vt 0.095215 -1.000000
vt 0.106290 -1.000000
vt 0.106290 0.000000
vt 0.162940 0.103766
vt 0.162940 0.871917
vt 0.171447 0.871917
vt 0.171447 0.103766
vt 0.075284 0.072764
vt 0.078384 0.582565
vt 0.033207 0.590225
vt 0.039408 0.072764
vt 0.106288 0.000000
vt 0.087056 0.000000
vt 0.095215 -0.010334
vt 0.106288 -0.010334
vt 0.896626 0.000000
vt 0.915858 0.000000
vt 0.915858 -0.010334
vt 0.904785 -0.010334
vt 0.288433 0.743949
vt 0.288433 0.247483
vt 0.284280 0.247483
vt 0.284280 0.743949
vt 0.075729 0.299676
vt 0.074981 0.011365
vt 0.075996 0.011361
vt 0.076744 0.299672
vt 0.077361 0.011355
vt 0.078109 0.299667
vt 0.078109 0.299667
vt 0.077361 0.011355
vt 0.075996 0.011361
vt 0.076744 0.299672
vt 0.112627 0.013692
vt 0.112627 0.000000
vt 0.904785 0.000000
vt 0.918998 0.013692
vt 0.060878 0.575891
vt 0.288654 0.574989
vt 0.288660 0.577087
vt 0.060883 0.577989
vt 0.078822 0.574065
vt 0.079570 0.862377
vt 0.080833 0.862372
vt 0.080825 0.859267
vt 0.080095 0.577913
vt 0.080085 0.574060
vt 0.074981 0.011365
vt 0.075729 0.299676
vt 0.286141 0.574999
vt 0.288654 0.574989
vt 0.288660 0.577087
vt 0.286147 0.577097
vt 0.286136 0.573022
vt 0.519544 0.572098
vt 0.519545 0.572257
vt 0.519546 0.572579
vt 0.286137 0.573503
vt 0.286136 0.573181
vt 0.286135 0.572541
vt 0.519543 0.571617
vt 0.075104 0.299679
vt 0.074356 0.011367
vt 0.074356 0.011367
vt 0.075104 0.299679
vt 0.078624 0.011350
vt 0.078634 0.015203
vt 0.079365 0.296558
vt 0.079373 0.299662
vt 0.422803 0.543640
vt 0.423163 0.803784
vt 0.424665 0.803781
vt 0.424305 0.543637
vt 0.420090 0.543646
vt 0.420450 0.803790
vt 0.421014 0.803789
vt 0.420654 0.543645
vt 0.423963 0.295840
vt 0.423603 0.035696
vt 0.424735 0.035694
vt 0.424739 0.038396
vt 0.425090 0.292367
vt 0.425095 0.295838
vt 0.407034 0.295648
vt 0.196429 0.296093
vt 0.196430 0.296323
vt 0.196430 0.296527
vt 0.407035 0.296083
vt 0.407035 0.295878
vt 0.420654 0.543645
vt 0.421014 0.803789
vt 0.420450 0.803790
vt 0.420090 0.543646
vt 0.424305 0.543637
vt 0.424665 0.803781
vt 0.423163 0.803784
vt 0.422803 0.543640
vt 0.421570 0.543643
vt 0.421930 0.803787
vt 0.425797 0.803779
vt 0.425792 0.800308
vt 0.425441 0.546337
vt 0.425437 0.543635
vt 0.196431 0.296961
vt 0.407036 0.296517
vt 0.100605 0.013667
vt 0.100605 0.000000
vt 0.095215 0.000000
vt 0.095215 0.013667
vt 0.427523 0.839690
vt 0.431429 0.002240
vt 0.004048 0.007065
vt 0.013814 0.839690
vt 0.421570 0.543643
vt 0.421930 0.803787
vt 0.045198 0.069493
vt 0.045198 0.073962
vt 0.377585 0.073962
vt 0.377585 0.069493
vn -1.0000 0.0000 0.0000
vn 0.0000 0.0000 -1.0000
vn 1.0000 0.0000 0.0000
vn -0.9258 -0.2606 -0.2738
vn -0.8357 0.5492 0.0000
vn 0.0000 -1.0000 0.0000
vn -0.9147 0.3006 -0.2700
vn -0.0000 0.0000 1.0000
vn -0.8972 0.2948 0.3287
vn 0.0000 1.0000 0.0000
vn -0.8714 -0.4905 0.0000
vn -0.9041 -0.2544 0.3434
vn -0.8609 0.0000 -0.5088
vn -0.7876 0.0000 0.6161
vn 0.4714 0.8819 0.0000
vn 0.6344 0.7730 0.0000
vn -0.6344 0.7730 0.0000
vn -0.7730 0.6344 0.0000
vn -0.4714 0.8819 0.0000
vn 0.0980 0.9952 0.0000
vn -0.0980 0.9952 0.0000
vn 0.2903 0.9569 0.0000
vn -0.2903 0.9569 0.0000
vn 0.7730 0.6344 0.0000
vn -0.7730 -0.6344 -0.0000
vn -0.2903 -0.9569 -0.0000
vn 0.8819 -0.4714 -0.0000
vn 0.0980 -0.9952 -0.0000
vn 0.2903 -0.9569 -0.0000
vn 0.7730 -0.6344 -0.0000
vn -0.6344 -0.7730 -0.0000
vn -0.4714 -0.8819 -0.0000
vn -0.8819 -0.4714 -0.0000
vn -0.0980 -0.9952 -0.0000
vn 0.4714 -0.8819 -0.0000
vn 0.6344 -0.7730 -0.0000
usemtl None
s off
f 1/1/1 2/2/1 4/3/1 3/4/1
f 45/5/2 46/6/2 8/7/2 7/8/2
f 7/9/3 8/10/3 6/11/3 5/12/3
f 47/13/3 48/14/3 59/15/3 60/16/3
f 21/17/4 3/18/4 38/19/4 40/20/4
f 4/21/5 2/22/5 9/23/5 10/24/5
f 6/25/6 8/26/6 14/27/6 15/28/6
f 4/21/7 10/24/7 17/29/7 13/30/7
f 15/31/3 14/32/3 18/33/3 19/34/3
f 50/35/8 15/36/8 19/37/8 77/38/8 70/39/8 72/40/8 66/41/8 64/42/8 62/43/8 75/44/8
f 49/45/2 13/46/2 17/47/2 82/48/2 78/49/2 67/50/2 84/51/2 86/52/2 88/53/2
f 48/54/6 6/55/6 15/56/6 50/57/6
f 9/58/9 2/59/9 16/60/9 20/61/9
f 46/62/6 4/63/6 13/64/6 49/65/6
f 11/66/10 12/67/10 19/68/10 18/69/10
f 1/70/11 3/71/11 21/72/11 22/73/11
f 7/74/10 5/75/10 29/76/10 30/77/10
f 51/78/8 25/79/8 27/80/8 116/81/8 92/82/8 114/83/8 112/84/8 120/85/8 108/86/8 109/87/8
f 1/88/12 22/89/12 27/90/12 25/91/12
f 47/92/10 1/93/10 25/94/10 51/95/10
f 28/96/6 24/97/6 34/98/6 36/99/6
f 30/100/3 29/101/3 31/102/3 32/103/3
f 7/104/10 30/105/10 43/106/10 41/107/10
f 24/108/6 23/109/6 32/110/6 31/111/6
f 5/112/8 24/113/8 31/114/8 29/115/8
f 34/116/3 33/117/3 35/118/3 36/119/3
f 5/120/10 26/121/10 35/122/10 33/123/10
f 26/124/8 28/125/8 36/126/8 35/127/8
f 24/128/2 5/129/2 33/130/2 34/131/2
f 52/132/2 37/133/2 39/134/2 93/135/2 95/136/2 99/137/2 117/138/2 105/139/2 101/140/2 103/141/2 110/142/2
f 45/143/10 7/144/10 37/145/10 52/146/10
f 7/104/3 23/147/3 39/148/3 37/149/3
f 42/150/2 41/151/2 43/152/2 44/153/2
f 23/154/1 7/155/1 41/156/1 42/157/1
f 32/158/6 23/159/6 42/160/6 44/161/6
f 30/162/3 32/163/3 44/164/3 43/165/3
f 23/159/6 94/166/6 93/167/6 39/168/6
f 3/169/10 45/170/10 52/171/10 38/172/10
f 38/173/2 52/174/2 110/175/2 107/176/2 119/177/2 111/178/2 113/179/2 89/180/2 90/181/2 40/182/2
f 5/183/10 47/184/10 51/185/10 26/186/10
f 26/187/8 51/188/8 109/189/8 104/190/8 102/191/8 106/192/8 118/193/8 100/194/8 98/195/8 97/196/8 28/197/8
f 22/198/6 115/199/6 116/200/6 27/201/6
f 21/202/6 91/203/6 115/204/6 22/205/6
f 8/206/6 46/207/6 49/208/6 14/209/6
f 2/210/6 48/211/6 50/212/6 16/213/6
f 10/214/10 83/215/10 82/216/10 17/217/10
f 14/218/2 49/219/2 88/220/2 61/221/2 63/222/2 65/223/2 71/224/2 69/225/2 73/226/2 18/227/2
f 16/228/8 50/35/8 75/44/8 87/229/8 85/230/8 68/231/8 81/232/8 80/233/8 20/234/8
f 11/235/10 74/236/10 76/237/10 12/238/10
f 12/239/10 76/240/10 77/241/10 19/242/10
f 5/243/8 6/244/8 48/245/8 47/246/8
f 4/247/10 46/248/10 56/249/10 53/250/10
f 54/251/2 53/252/2 56/253/2 55/254/2
f 45/143/6 3/255/6 54/256/6 55/257/6
f 46/258/3 45/259/3 55/260/3 56/261/3
f 3/262/13 4/263/13 53/264/13 54/265/13
f 60/266/8 59/267/8 58/268/8 57/269/8
f 48/270/10 2/271/10 58/272/10 59/273/10
f 1/274/6 47/275/6 60/276/6 57/277/6
f 2/278/14 1/279/14 57/280/14 58/281/14
f 85/282/15 84/283/15 67/284/15 68/285/15
f 68/285/16 67/284/16 78/286/16 81/287/16
f 70/288/17 69/289/17 71/290/17 72/291/17
f 73/292/10 74/293/10 11/294/10 18/295/10
f 79/296/10 83/297/10 10/298/10 9/299/10
f 69/300/18 70/301/18 77/302/18 76/303/18 74/304/18 73/305/18
f 72/291/19 71/290/19 65/306/19 66/307/19
f 80/308/10 79/309/10 9/310/10 20/311/10
f 62/312/20 61/313/20 88/314/20 86/315/20 87/316/20 75/317/20
f 64/318/21 63/319/21 61/313/21 62/312/21
f 87/320/22 86/321/22 84/283/22 85/282/22
f 66/307/23 65/306/23 63/322/23 64/323/23
f 81/287/24 78/286/24 82/324/24 83/325/24 79/326/24 80/327/24
f 100/328/25 99/329/25 95/330/25 98/331/25
f 102/332/26 101/333/26 105/334/26 106/335/26
f 89/336/27 92/337/27 116/338/27 115/339/27 91/340/27 90/341/27
f 108/342/28 107/343/28 110/344/28 103/345/28 104/346/28 109/347/28
f 120/348/29 119/349/29 107/350/29 108/351/29
f 92/352/30 89/353/30 113/354/30 114/355/30
f 118/356/31 117/357/31 99/329/31 100/328/31
f 106/335/32 105/334/32 117/357/32 118/356/32
f 98/331/33 95/330/33 93/358/33 94/359/33 96/360/33 97/361/33
f 104/346/34 103/345/34 101/362/34 102/363/34
f 90/364/6 91/365/6 21/366/6 40/367/6
f 96/368/6 94/369/6 23/370/6 24/371/6
f 112/372/35 111/373/35 119/349/35 120/348/35
f 114/355/36 113/354/36 111/373/36 112/372/36
f 97/374/6 96/375/6 24/376/6 28/377/6
